<svg width="50" height="50" viewBox="0 0 50 50" fill="none" xmlns="http://www.w3.org/2000/svg">
<path d="M32.4996 50C33.1627 50 33.7986 49.7366 34.2674 49.2678C34.7362 48.7989 34.9996 48.163 34.9996 47.5C34.9996 46.837 34.7362 46.2011 34.2674 45.7322C33.7986 45.2634 33.1627 45 32.4996 45H11.6665C9.89845 45 8.20277 44.2976 6.95254 43.0474C5.70232 41.7971 4.99994 40.1014 4.99994 38.3333V11.6667C4.99994 9.89856 5.70232 8.20286 6.95254 6.95262C8.20277 5.70238 9.89845 5 11.6665 5H32.4996C33.1627 5 33.7986 4.73661 34.2674 4.26777C34.7362 3.79893 34.9996 3.16304 34.9996 2.5C34.9996 1.83696 34.7362 1.20107 34.2674 0.732233C33.7986 0.263392 33.1627 0 32.4996 0H11.6665C8.57238 0 5.60495 1.22916 3.41705 3.41709C1.22915 5.60501 0 8.57247 0 11.6667V38.3333C0 41.4275 1.22915 44.395 3.41705 46.5829C5.60495 48.7708 8.57238 50 11.6665 50H32.4996ZM35.8029 12.33C36.0441 12.1071 36.3268 11.934 36.6349 11.8204C36.943 11.7068 37.2705 11.6551 37.5986 11.6681C37.9267 11.6811 38.249 11.7586 38.5472 11.8962C38.8453 12.0338 39.1135 12.2288 39.3362 12.47L49.3361 23.3033C49.763 23.7652 50 24.3711 50 25C50 25.6289 49.763 26.2348 49.3361 26.6967L39.3362 37.53C38.8858 38.0167 38.2605 38.3045 37.5979 38.3301C36.9353 38.3557 36.2896 38.1171 35.8029 37.6667C35.3163 37.2162 35.0285 36.5909 35.0028 35.9283C34.9772 35.2657 35.2159 34.62 35.6663 34.1333L41.7929 27.4967H15.8332C15.1701 27.4967 14.5342 27.2333 14.0654 26.7644C13.5966 26.2956 13.3332 25.6597 13.3332 24.9967C13.3332 24.3336 13.5966 23.6977 14.0654 23.2289C14.5342 22.7601 15.1701 22.4967 15.8332 22.4967H41.7895L35.6629 15.86C35.4401 15.6188 35.2669 15.3361 35.1533 15.028C35.0398 14.7199 34.988 14.3924 35.001 14.0643C35.014 13.7362 35.0915 13.4139 35.2291 13.1157C35.3667 12.8176 35.5617 12.5528 35.8029 12.33Z" fill="#111111"/>
</svg>
