<svg width="223" height="43" viewBox="0 0 223 43" fill="none" xmlns="http://www.w3.org/2000/svg">
<path d="M38.36 24.296C37.432 28.328 35.384 31.304 32.216 33.224C29.048 35.112 24.984 36.056 20.024 36.056C17.016 36.056 14.328 35.656 11.96 34.856C9.59204 34.056 7.59204 32.92 5.96004 31.448C4.32804 29.944 3.08004 28.12 2.21604 25.976C1.35204 23.832 0.920044 21.416 0.920044 18.728V17.864C0.920044 15.08 1.35204 12.6 2.21604 10.424C3.08004 8.248 4.32804 6.424 5.96004 4.95199C7.59204 3.448 9.59204 2.312 11.96 1.544C14.328 0.743995 17.016 0.343994 20.024 0.343994C22.584 0.343994 24.904 0.599995 26.984 1.112C29.096 1.62399 30.92 2.408 32.456 3.464C34.024 4.488 35.304 5.784 36.296 7.352C37.288 8.92 37.944 10.76 38.264 12.872H33.08C32.76 11.624 32.216 10.488 31.448 9.464C30.712 8.408 29.784 7.512 28.664 6.776C27.576 6.008 26.296 5.432 24.824 5.048C23.384 4.632 21.784 4.424 20.024 4.424C17.688 4.424 15.64 4.776 13.88 5.48C12.12 6.152 10.648 7.09599 9.46404 8.31199C8.28004 9.528 7.38404 11 6.77604 12.728C6.20004 14.424 5.91204 16.296 5.91204 18.344C5.91204 20.296 6.20004 22.104 6.77604 23.768C7.38404 25.432 8.28004 26.872 9.46404 28.088C10.648 29.304 12.12 30.264 13.88 30.968C15.64 31.64 17.688 31.976 20.024 31.976C23.576 31.976 26.504 31.304 28.808 29.96C31.144 28.584 32.632 26.696 33.272 24.296H38.36Z" fill="black"/>
<path d="M64.4889 27.896C64.4569 30.616 63.6089 32.68 61.9449 34.088C60.3129 35.496 57.9289 36.2 54.7929 36.2H53.1609C50.0249 36.2 47.5929 35.496 45.8649 34.088C44.1369 32.648 43.2409 30.472 43.1769 27.56C43.1769 24.712 44.0569 22.616 45.8169 21.272C47.5769 19.896 50.0249 19.208 53.1609 19.208H67.8969C67.7369 17.8 67.3369 16.648 66.6969 15.752C66.0569 14.824 65.3049 14.104 64.4409 13.592C63.5769 13.048 62.6329 12.68 61.6089 12.488C60.6169 12.264 59.6889 12.152 58.8249 12.152H58.3449C57.4809 12.152 56.5849 12.216 55.6569 12.344C54.7289 12.472 53.8329 12.712 52.9689 13.064C52.1049 13.384 51.3209 13.832 50.6169 14.408C49.9129 14.984 49.3849 15.736 49.0329 16.664H44.3289C44.4889 15.416 44.9369 14.28 45.6729 13.256C46.4409 12.232 47.4329 11.352 48.6489 10.616C49.8969 9.848 51.3209 9.256 52.9209 8.84C54.5529 8.424 56.2809 8.216 58.1049 8.216H58.4889C60.9849 8.216 63.1129 8.504 64.8729 9.08C66.6329 9.656 68.0729 10.536 69.1929 11.72C70.3129 12.904 71.1289 14.408 71.6409 16.232C72.1529 18.056 72.4249 20.216 72.4569 22.712V35H67.9929V23.048L63.0489 23C64.0089 24.312 64.4889 25.944 64.4889 27.896ZM47.6409 27.56C47.6729 29.096 48.1209 30.264 48.9849 31.064C49.8489 31.832 51.2409 32.216 53.1609 32.216H54.7929C56.6489 32.216 58.0089 31.832 58.8729 31.064C59.7369 30.296 60.2009 29.128 60.2649 27.56C60.2009 25.992 59.7529 24.84 58.9209 24.104C58.0889 23.368 56.7129 23 54.7929 23H53.1609C51.2409 23 49.8489 23.368 48.9849 24.104C48.1209 24.84 47.6729 25.992 47.6409 27.56Z" fill="black"/>
<path d="M95.2089 12.68C93.6089 12.68 92.1369 12.872 90.7929 13.256C89.4489 13.608 88.2809 14.168 87.2889 14.936C86.2969 15.704 85.5289 16.712 84.9849 17.96C84.4409 19.176 84.1529 20.664 84.1209 22.424L84.0729 35H79.6569V9.56H84.1209L83.5449 13.4C84.8569 11.864 86.5049 10.712 88.4889 9.944C90.4729 9.144 92.7129 8.74399 95.2089 8.74399H101.017V12.68H95.2089Z" fill="black"/>
<path d="M127.82 4.472L121.82 35H113.324L103.676 1.39999H108.572L117.5 32.504L123.596 1.39999H131.996L138.044 32.216L146.876 1.39999H151.772L142.124 35H133.772L127.82 4.472Z" fill="black"/>
<path d="M178.114 27.896C178.082 30.616 177.234 32.68 175.57 34.088C173.938 35.496 171.554 36.2 168.418 36.2H166.786C163.65 36.2 161.218 35.496 159.49 34.088C157.762 32.648 156.866 30.472 156.802 27.56C156.802 24.712 157.682 22.616 159.442 21.272C161.202 19.896 163.65 19.208 166.786 19.208H181.522C181.362 17.8 180.962 16.648 180.322 15.752C179.682 14.824 178.93 14.104 178.066 13.592C177.202 13.048 176.258 12.68 175.234 12.488C174.242 12.264 173.314 12.152 172.45 12.152H171.97C171.106 12.152 170.21 12.216 169.282 12.344C168.354 12.472 167.458 12.712 166.594 13.064C165.73 13.384 164.946 13.832 164.242 14.408C163.538 14.984 163.01 15.736 162.658 16.664H157.954C158.114 15.416 158.562 14.28 159.298 13.256C160.066 12.232 161.058 11.352 162.274 10.616C163.522 9.848 164.946 9.256 166.546 8.84C168.178 8.424 169.906 8.216 171.73 8.216H172.114C174.61 8.216 176.738 8.504 178.498 9.08C180.258 9.656 181.698 10.536 182.818 11.72C183.938 12.904 184.754 14.408 185.266 16.232C185.778 18.056 186.05 20.216 186.082 22.712V35H181.618V23.048L176.674 23C177.634 24.312 178.114 25.944 178.114 27.896ZM161.266 27.56C161.298 29.096 161.746 30.264 162.61 31.064C163.474 31.832 164.866 32.216 166.786 32.216H168.418C170.274 32.216 171.634 31.832 172.498 31.064C173.362 30.296 173.826 29.128 173.89 27.56C173.826 25.992 173.378 24.84 172.546 24.104C171.714 23.368 170.338 23 168.418 23H166.786C164.866 23 163.474 23.368 162.61 24.104C161.746 24.84 161.298 25.992 161.266 27.56Z" fill="black"/>
<path d="M210.946 32.888C209.666 35.384 208.498 37.272 207.442 38.552C206.386 39.832 205.362 40.728 204.37 41.24C203.378 41.784 202.354 42.056 201.298 42.056C200.242 42.088 199.042 42.104 197.698 42.104H197.266V38.024C198.45 38.024 199.442 37.992 200.242 37.928C201.042 37.864 201.746 37.656 202.354 37.304C202.994 36.952 203.618 36.392 204.226 35.624C204.834 34.856 205.538 33.768 206.338 32.36L206.578 31.88H203.506L190.882 9.608H195.922C197.906 13.128 199.714 16.328 201.346 19.208C202.05 20.424 202.738 21.64 203.41 22.856C204.082 24.04 204.706 25.144 205.282 26.168C205.858 27.16 206.338 28.008 206.722 28.712C207.106 29.384 207.362 29.832 207.49 30.056L217.714 9.608H222.658L210.946 32.888Z" fill="black"/>
</svg>
