<svg width="50" height="50" viewBox="0 0 50 50" fill="none" xmlns="http://www.w3.org/2000/svg">
<path d="M45.2224 26.361V23.6211L48.7538 20.6126C49.4047 20.0539 49.8319 19.2892 49.9598 18.4536C50.0877 17.618 49.9081 16.7652 49.4527 16.0461L45.112 8.88295C44.7895 8.33902 44.3257 7.88724 43.7672 7.57292C43.2087 7.2586 42.5752 7.09281 41.9301 7.09216C41.5303 7.08918 41.1327 7.14967 40.753 7.27124L36.2835 8.73968C35.5119 8.24043 34.707 7.79174 33.8741 7.3966L32.9361 2.88382C32.7679 2.05935 32.3072 1.31875 31.6347 0.791651C30.9622 0.264555 30.1207 -0.0154476 29.2575 0.000657989H20.6498C19.7866 -0.0154476 18.9451 0.264555 18.2726 0.791651C17.6001 1.31875 17.1394 2.05935 16.9712 2.88382L16.0332 7.3966C15.1944 7.79164 14.3833 8.24032 13.6054 8.73968L9.22791 7.19961C8.84405 7.10223 8.44654 7.06595 8.05078 7.09216C7.4057 7.09281 6.77214 7.2586 6.21365 7.57292C5.65516 7.88724 5.19139 8.33902 4.86885 8.88295L0.528176 16.0461C0.0988673 16.7642 -0.0606622 17.6052 0.0769105 18.4253C0.214483 19.2453 0.640598 19.9932 1.28228 20.5409L4.75849 23.639V26.3789L1.28228 29.3874C0.622473 29.939 0.184703 30.7003 0.0466534 31.5363C-0.0913961 32.3722 0.0792034 33.2288 0.528176 33.9539L4.86885 41.1171C5.19139 41.661 5.65516 42.1128 6.21365 42.4271C6.77214 42.7414 7.4057 42.9072 8.05078 42.9078C8.45055 42.9108 8.84814 42.8503 9.22791 42.7288L13.6973 41.2603C14.469 41.7596 15.2739 42.2083 16.1068 42.6034L17.0448 47.1162C17.213 47.9407 17.6737 48.6813 18.3462 49.2084C19.0187 49.7354 19.8602 50.0154 20.7233 49.9993H29.4047C30.2679 50.0154 31.1093 49.7354 31.7819 49.2084C32.4544 48.6813 32.915 47.9407 33.0832 47.1162L34.0212 42.6034C34.8601 42.2084 35.6711 41.7597 36.4491 41.2603L40.9001 42.7288C41.2799 42.8503 41.6775 42.9108 42.0772 42.9078C42.7223 42.9072 43.3559 42.7414 43.9144 42.4271C44.4729 42.1128 44.9366 41.661 45.2592 41.1171L49.4527 33.9539C49.882 33.2358 50.0415 32.3948 49.904 31.5747C49.7664 30.7547 49.3403 30.0068 48.6986 29.4591L45.2224 26.361ZM41.9301 39.3263L35.6214 37.249C34.1446 38.4669 32.4568 39.4189 30.637 40.0605L29.3311 46.4894H20.6498L19.3439 40.1321C17.5385 39.4724 15.8598 38.522 14.3779 37.3206L8.05078 39.3263L3.71011 32.1631L8.71292 27.8653C8.37283 26.0115 8.37283 24.1138 8.71292 22.2601L3.71011 17.8369L8.05078 10.6737L14.3595 12.751C15.8363 11.5331 17.5241 10.5811 19.3439 9.93951L20.6498 3.51059H29.3311L30.637 9.86788C32.4424 10.5276 34.1211 11.478 35.603 12.6794L41.9301 10.6737L46.2708 17.8369L41.268 22.1347C41.608 23.9885 41.608 25.8862 41.268 27.7399L46.2708 32.1631L41.9301 39.3263Z" fill="#111111"/>
<path d="M24.9909 35.744C22.8082 35.744 20.6746 35.1138 18.8598 33.9332C17.045 32.7525 15.6306 31.0744 14.7953 29.1111C13.96 27.1478 13.7415 24.9874 14.1673 22.9031C14.5931 20.8188 15.6442 18.9043 17.1875 17.4016C18.7309 15.899 20.6972 14.8756 22.8379 14.461C24.9786 14.0464 27.1975 14.2592 29.214 15.0725C31.2305 15.8857 32.954 17.2629 34.1666 19.0298C35.3793 20.7968 36.0265 22.8742 36.0265 24.9993C36.0412 26.4143 35.7659 27.8179 35.2165 29.128C34.6671 30.4381 33.8548 31.6283 32.8271 32.6289C31.7994 33.6296 30.577 34.4205 29.2314 34.9554C27.8859 35.4902 26.4442 35.7583 24.9909 35.744ZM24.9909 17.8361C24.0185 17.8141 23.0517 17.9843 22.1489 18.3365C21.246 18.6886 20.4259 19.2155 19.7382 19.8851C19.0505 20.5547 18.5094 21.3531 18.1477 22.2322C17.786 23.1112 17.6112 24.0526 17.6338 24.9993C17.6112 25.946 17.786 26.8873 18.1477 27.7664C18.5094 28.6454 19.0505 29.4439 19.7382 30.1135C20.4259 30.7831 21.246 31.3099 22.1489 31.6621C23.0517 32.0143 24.0185 32.1845 24.9909 32.1624C25.9632 32.1845 26.93 32.0143 27.8329 31.6621C28.7357 31.3099 29.5558 30.7831 30.2435 30.1135C30.9313 29.4439 31.4724 28.6454 31.8341 27.7664C32.1958 26.8873 32.3706 25.946 32.3479 24.9993C32.3706 24.0526 32.1958 23.1112 31.8341 22.2322C31.4724 21.3531 30.9313 20.5547 30.2435 19.8851C29.5558 19.2155 28.7357 18.6886 27.8329 18.3365C26.93 17.9843 25.9632 17.8141 24.9909 17.8361Z" fill="#111111"/>
</svg>
